<?xml version="1.0" encoding="utf-8"?>
<!-- Generator: Adobe Illustrator 24.0.2, SVG Export Plug-In . SVG Version: 6.00 Build 0)  -->
<svg version="1.1" id="Layer_1" xmlns="http://www.w3.org/2000/svg" xmlns:xlink="http://www.w3.org/1999/xlink" x="0px" y="0px"
	 viewBox="0 0 792 612" style="enable-background:new 0 0 792 612;" xml:space="preserve">
<style type="text/css">
	.st0{fill:#B11116;}
	.st1{fill-rule:evenodd;clip-rule:evenodd;fill:#DCB91C;}
</style>
<g>
	<path class="st0" d="M320,398.6V230.1h63.2c25.4,0,44.2,3.5,56.4,10.6c12.1,7.1,18.2,18,18.2,32.9c0,9.9-3,18-9,24.3
		c-6,6.3-15,10.8-27,13.6c13.9,2.5,24.1,7.1,30.8,13.9c6.7,6.7,10.1,15.8,10.1,27.1c0,15.4-5.5,26.9-16.4,34.6
		c-10.9,7.7-27.4,11.5-49.5,11.5H320z M365.2,298.4h18.1c10,0,17.4-1.5,22-4.6c4.6-3.1,7-7.9,7-14.5c0-6.2-2.4-10.9-7.3-14.1
		c-4.9-3.1-12.1-4.7-21.7-4.7h-18.1V298.4z M365.2,368h18.1c11.3,0,19.5-1.6,24.6-4.9c5-3.2,7.5-8.5,7.5-15.8c0-6.8-2.6-11.8-7.8-15
		c-5.2-3.2-13.3-4.9-24.3-4.9h-18.1V368z"/>
	<path class="st0" d="M483,398.6V230.1h77.2c22,0,38.7,4.5,50,13.7c11.3,9.1,17,22.5,17,40.1c0,17.3-5.6,30.8-16.8,40.4
		c-11.2,9.6-26.8,14.5-46.8,14.5h-33.7v59.9H483z M529.8,305.7h20.8c10,0,17.3-1.8,22.1-5.5c4.8-3.7,7.1-9.3,7.1-17
		c0-7.5-2.3-13-7-16.5c-4.7-3.5-12.1-5.2-22.2-5.2h-20.8V305.7z"/>
	<path class="st0" d="M647.2,398.6V230.1h46.6v168.5H647.2z"/>
	<g>
		<g>
			<path class="st1" d="M100.8,372.4c1.5,3.9,4.6,7.6,9.3,11.3c6.9,5.4,58.9,40,74.6,50.4l3.5,2.3l2.9-1.9
				c2.7-1.8,65.9-44.7,73.6-50.8c4.7-3.7,7.7-7.4,9.3-11.3c2.4-6.3,1.5-11.2,0.8-14.8l0-0.2c-0.3-1.7-10.6-64-16.2-93.6
				c-22.7-3.6-45.9-5.5-69.6-5.5c-0.5,0-1,0-1.6,0v161.4c-31.7-20.8-62.5-40.9-67.6-44.9c-3.1-2.4-5-4.6-5.8-6.6
				c-1.3-3.2-0.8-6-0.2-8.8c0.4-1.9,11.5-68.7,16.9-97.1c-4.9,0.6-8.6,1.3-13.4,2.1c-5.6,29.7-16.9,91.3-17.2,93.1
				C99.3,361.2,98.4,366.1,100.8,372.4z M142.1,287.5h5.6v3.2v1.6h4.9v-5.1h5.9v5.1h4.7v-4.9h5.6V300h-26.7V287.5z M146.5,302.2
				h17.9l6.2,49.7h-30.3L146.5,302.2z M136.9,354.2h37v12.5h-10v-3.2h-17.1v3.2h-10V354.2z M151.3,329.3h8.5v-3.1h-8.5V329.3z
				 M159.7,316.4h-8.5v3.1h8.5V316.4z M151.2,339.1h8.5V336h-8.5V339.1z M145.7,238.5c-3.5,0.4-5.9,0.8-9.1,1.8
				c-0.5,2.8-1.5,8.3-2.4,12.6c17.6-2.5,35.6-3.9,53.9-3.9c17.2,0,34.1,1.3,50.8,3.5c-0.9-4.2-1.8-9.4-2.3-12.2
				c-2.2-0.9-5.1-1.5-8.8-1.7c11.7-2.8,18.8-11,18.8-18.9c0-10.4-8.2-18.7-28.5-20.8c-7.2-5.6-17.2-8-25.8-8.7
				c2.1-1.5,3.6-4.1,3.6-7c0-4.7-4.7-8.4-9.2-8.4c-4.5,0-9.2,3.8-9.2,8.4c0,2.9,1.4,5.5,3.6,7c-8.7,0.7-18.6,3.1-25.8,8.7
				c-20.2,2-28.5,10.3-28.5,20.8C126.8,227.6,134,235.8,145.7,238.5z M222.4,205.3c0,0,15.4,1.4,15.2,14.8
				c-0.1,10.6-11.6,16.4-26.2,14.6C231.5,226.5,227.2,211,222.4,205.3z M191.4,197.4c12.9,1.2,22.9,9.2,22.9,19.1
				c0,10-10.3,18.2-23.5,19.1c2.7-3.6,4.5-10.9,4.5-19.5C195.4,208.2,193.8,201.3,191.4,197.4z M182,197.4
				c-2.3,3.8-3.9,10.7-3.9,18.7c0,8.6,1.9,15.9,4.5,19.5c-13.2-1-23.5-9.1-23.5-19.1C159.1,206.6,169.1,198.6,182,197.4z
				 M151.1,205.3c-4.8,5.7-9.1,21.2,11,29.3c-14.6,1.8-26.1-3.9-26.2-14.6C135.7,206.7,151.1,205.3,151.1,205.3z M227.2,377.3
				c0.2-0.6,0.3-1.2,0.5-1.8c1-0.2,2-0.3,3-0.5c1.9-1.2,1.7-5.1,3.6-6.2c0.9-0.5,1.3,0.2,1.7,0.7c0.6-1.3,0.4-3.2,1-4.7
				c1.6-3.8,5-5.9,3.7-12.4c-0.1-0.1-0.2-0.2-0.2-0.3c-0.6,0.9-0.8,1.5-1.5,2.2c-4.9-0.3-3.1-11.3,0.2-12.3
				c2.4,6.5,12.7,8.4,13.3-0.2c0.1-1.7-1.3-4.1-3-6.8c0.7-2.7,1.8-4.9,2.8-6.3c0.6-0.8-2.8,0.7-4.4,3.7c0.7-2.9,1.9-5.3,2.9-6.8
				c0.6-0.8-2.4,0.5-4.1,3.2c0.7-2.9,1.9-5.2,2.9-6.7c0.6-0.9-3.1,0.8-4.6,4.2c-0.5-1.7-0.9-3.4-0.8-5.1c0.1-4.1,1.3-12.2,2.9-18.8
				c0.4-1.9,1.4-5.4,4.1-6.9c-2.1-0.5-5.7,1.4-5.6,5.5c-0.6-6-5.1-8-7.4-8.4c7.4,6.5,1.3,21.4,1.4,28.4c0.1,8.8,10.6,18,9,21.1
				c-2.4,4.6-6.9-4.2-8.2-7c-1.4-2.8-6.2-7.2-9.7-10.6c2.1-1.5,4.4-5.2,4.5-9.2c0.3,0.4,0.7,0.8,1,1.2c0.1,0,0.3,0,0.5,0
				c-0.5-3.7,1-7.5-0.2-10.9c0.6,0,1.1,0,1.7,0c-0.5-16.3-12.3-12.9-18-11.5c-0.1,0.3-0.2,0.6-0.3,0.9c0.8,0,1.5,0.1,2.3,0.1
				c0,0.1,0,0.1,0,0.1c-0.6,0.2-1.2,0.4-1.8,0.6c-0.3,1.1,0,3.7,1.4,5c0.5-1.2,0.6-1.7,1.7-2.2c1.4,0.7,2.3,3.1,1.4,5.3
				c-1,0.4-2,0.2-2.4-1c0,0-0.1,0-0.1,0c-0.6,2.4-0.4,4.9,1.4,6.5c0.1-2,0.8-2.9,2.5-2.8c-0.5,4.9-3.8,3.8-7.1,5.1
				c-6.1,2.4-7.8,11.6-13.3,13.1c0.5,2.2,2.6,4,4.2,4.8c-0.8,1.5-4.2,6.2-5.7,6.4c-0.6-0.8-1.1-1.6-2.1-1.9c-1,0.3-1.9,0.5-2.9,0.8
				c-0.1,0.3-0.3,0.7-0.5,1c0.4,0.1,0.8,0.2,1.3,0.3c0,0.6-0.1,1.2-0.1,1.8c0.8,0.2,1.9,0.2,2.6,0.6c0,0.2,0.1,0.3,0.1,0.5
				c-0.9-0.2-1.8-0.6-2.8-0.3c-0.6,0.4-1.9,2.8-1.6,3.8c0,0.1,0,0.2,0,0.3c0.3-0.3,0.5-0.5,0.8-0.7c0.6,0.2,0.6,0.3,0.7,1
				c0.2,0.1,0.4,0.2,0.6,0.3c0.7-0.7,1.5-1.4,2.2-2.1c0,0,0.1,0,0.1,0c0.1,0.1,0.1,0.3,0.2,0.4c-0.7,0.7-1.3,1.4-2,2.1
				c-0.1,1.2-0.3,2.5-0.1,4.1c0.5-0.4,0.9-0.9,1.4-1.3c1.8,1.7,2.9-0.5,3.9-2.2c0.6,0.6,1.3,0.7,2.1,0.7c0,0.4,0.1,0.9,0.1,1.3
				c0,0,0.1,0,0.1,0c2.9-2.8-0.8-5.2,2.6-8.6c1.6,1,2.8,0.7,4.4,0c0.3-0.4,0.5-0.8,0.8-1.2c-0.9-0.3-1.4-0.7-1.8-1.6
				c0-0.6,0-0.7,0.2-1c0.7-1.5,3.2-1.3,4.6-0.8c3.7,1.5,5.9,4.8,8.6,7.5c-0.2,3.4-0.6,7.8,0.1,10.9c0.8,3.1,3,4.5,2.2,8.4
				c1.4-0.1,2.1-0.8,2.6-1.9c0.5,0,1.1,0.1,1.6,0.1c-1.4,2.6-3.9,7.6-6.7,8.3c-2.5,0.7-3.5-2.4-5.9-1.6c-0.3,0.3-0.7,0.7-1,1
				c-1.1,0.6-1.4-0.2-2.1,1.2c0,0.1,0,0.3,0,0.4c0.4,0,0.8,0.1,1.3,0.1c0.1,0.5,0.2,1.1,0.3,1.6c0.7-0.7,1.3-1.5,2-2.2
				c0,0.1,0.1,0.2,0.1,0.3c-1,0.9-1.7,2.3-2.4,3.6c-0.1,0.9,0,1.6,0.1,2.5c0.1,0.1,0.1,0.1,0.2,0.1c0.2-0.4,0.5-0.8,0.7-1.2
				c0.2,0,0.3,0,0.5,0c0.2,0.3,0.4,0.6,0.6,0.9c0.2,0,0.3,0,0.5,0c0.2-1.2,0.5-2.5,0.7-3.7c0.1-0.1,0.2-0.2,0.3-0.3
				c0,0.1,0.1,0.1,0.1,0.1c-0.7,2-1,4.1-0.5,6.3c0.1,0.1,0.3,0.3,0.5,0.4c0.1-0.3,0.2-0.7,0.3-1c0.5-0.5,0.8-0.6,1.8-0.6
				c0.1-1.6-0.4-3,0.7-4c-0.7,1.6-0.5,4-0.1,5.9C226.7,376.9,226.9,377.1,227.2,377.3 M225.3,296.8c0-0.7,0-1.3,0-2
				c1.4-0.1,3.2-0.2,4.1,0.4C228.1,295.8,226.7,296.3,225.3,296.8z M228,357.1c0,0,0-0.1,0-0.1c-1.4-1.1-6.2-7-4.7-10.4
				c0.6-1.9,2.4-1.4,3.4-0.5c0.1-1,0.2-2.1,0.2-3.1c-0.9-1.4-3.2-2.1-2.3-4.6c-6.1-4.9-5.7,3.4-10.9,3.3c0.2,1.9,1.1,3.3,2.8,3.4
				c0,3.9,1.5,6.6,3.2,8.2c0,0.1,0.1,0.3,0.1,0.4c-2.3,0.3-5.2,0.7-6.9-0.7c-2-1.7-2.5-4.2-6-4c0,0.1,0,0.1,0,0.1
				c0.2,0.3,0.4,0.6,0.6,0.9c0.1,0.5-0.2,0.7-0.3,1.3c0,0,0,0.1,0,0.2c0.7,0.2,1.3,0.4,2,0.6c0.1,0,0.1,0,0.2,0c0,0.2,0,0.4,0,0.6
				c-1.9-0.4-3.9-0.3-4.6,1.8c0,0.1,0,0.1,0,0.2c0.4,0,0.8,0,1.2,0c0.3,0.6,0.6,1.1,0.7,2.1c0.7-0.8,1.4-1.6,2.1-2.4
				c0,0,0.1,0,0.1,0c-0.4,2.2-2.2,2.8-2.4,5.5c0,0.1,0,0.1,0,0.1c0.4,0,0.9-0.4,1.4-0.7c0.4,0.4,0.8,0.8,1.1,1.2
				c0.5-0.5,0.7-1.8,0.9-2.7c0.2,0,0.3,0,0.5,0c-0.3,1.6-1.2,3.6-0.6,5.2c0.2,0.2,0.4,0.5,0.6,0.7c0.2-0.5,0.3-1,0.5-1.5
				c0.7-0.5,1.2,0.5,2.4,0c1.4-0.6,1.4-2.5,3.4-2.5c0.5,0.6,0.8,0.9,0.8,2.2c1.3-0.4,1.7-1.7,2.9-2.1
				C224.3,358.5,225.2,360.4,228,357.1z M217.9,305.1c2.6-0.3,3.5-3.2,6.2-3.3c0-0.1,0-0.1,0-0.2c-0.7-0.1-1.2-0.3-2-0.1
				c-1.3,0.3-7.3,3.6-4.9-1.5C215.3,300.8,214.6,305.4,217.9,305.1z M199.5,318.2c0,0.1,0,0.1,0,0.1c0.6,0.8,2.1,0.6,3.2,0.6
				c0.4-0.6,0.8-1.3,1.3-1.9c0.1,0,0.2,0,0.2,0c1.3,1.7,2.7,3.4,4,5.1c0.1,0,0.2,0,0.2,0c1.3-1.2,2.2-2.9,3.2-4.5
				c-0.4-2.5-3.3-3.6-4-6c-0.9-2.7,1.8-6.5-1.6-8.4c0,1.4-0.6,1.7-0.7,2.5c0.1,0.8,0.2,1.6,0.2,2.4c0,0.1,0,0.2,0,0.3
				c0,0-0.1,0-0.1,0c-0.5-0.6-0.4-1.5-0.8-2.4c-0.4-0.9-2.5-2-3.4-2.2c0,0.1,0,0.1,0,0.2c0.3,1,0.1,1.8,0.2,2.6
				c0.5,0.8,1,1.7,1.5,2.5c0,0.2,0,0.4,0,0.6c-0.1,0-0.2,0-0.3,0c-0.5-0.6-1.1-1.3-1.6-1.9c-0.8-0.4-2.4,0-3.2,0.3
				c0.3,0.4,0.7,0.8,1,1.2C199.6,310.6,203.4,315,199.5,318.2z M222.8,284.7c1.1-0.9,2.7-1.3,4-1.4c-0.3-0.2-0.6-0.6-0.6-1.1
				c0-0.7,0.7-1.3,1.4-1.3c0.7,0,1.4,0.6,1.4,1.3c0,0.5-0.2,0.9-0.6,1.1c1.4,0.1,2.9,0.5,4,1.4c3.2,0.3,4.5,1.6,4.5,3.2
				c0,1.4-1.3,2.8-3.5,3.1c-0.1,0.5-0.1,1.1-0.2,1.4c-1.3-0.4-3.7-0.6-5.7-0.6c-1.9,0-4.6,0.3-5.7,0.6c0-0.3-0.1-0.9-0.2-1.4
				c-2.2-0.3-3.5-1.7-3.5-3.1C218.4,286.3,219.6,285,222.8,284.7z M235.7,288c0-1.8-2.2-2-2.2-2c0.7,0.8,1.3,2.9-1.6,4
				C234,290.2,235.7,289.4,235.7,288z M232.1,287.4c0-1.4-1.6-2.5-3.6-2.6c0.4,0.5,0.6,1.5,0.6,2.6c0,1.2-0.3,2.2-0.7,2.7
				C230.4,289.9,232.1,288.8,232.1,287.4z M227.1,290.1c-0.4-0.5-0.7-1.5-0.7-2.7c0-1.1,0.2-2.1,0.6-2.6c-2,0.2-3.6,1.3-3.6,2.6
				C223.4,288.8,225,289.9,227.1,290.1z M223.6,290c-3-1.1-2.3-3.3-1.6-4.1c0,0-2.3,0.2-2.2,2C219.8,289.5,221.5,290.3,223.6,290z"
				/>
		</g>
	</g>
</g>
</svg>
