<svg xmlns="http://www.w3.org/2000/svg" viewBox="0 0 480 480">
  <defs>
    <linearGradient id="g" x1="0%" x2="100%" y1="0%" y2="100%">
      <stop offset="0%" stop-color="#0f172a" />
      <stop offset="100%" stop-color="#111827" />
    </linearGradient>
  </defs>
  <rect width="480" height="480" rx="48" fill="url(#g)" />
  <rect x="48" y="48" width="120" height="120" rx="24" fill="#f59e0b" />
  <rect x="72" y="72" width="72" height="72" rx="16" fill="#fff" />
  <rect x="312" y="48" width="120" height="120" rx="24" fill="#ef4444" />
  <rect x="336" y="72" width="72" height="72" rx="16" fill="#fff" />
  <rect x="48" y="312" width="120" height="120" rx="24" fill="#3b82f6" />
  <rect x="72" y="336" width="72" height="72" rx="16" fill="#fff" />
  <rect x="192" y="48" width="56" height="56" fill="#fff" />
  <rect x="264" y="48" width="56" height="56" fill="#fff" />
  <rect x="192" y="120" width="56" height="56" fill="#fff" />
  <rect x="336" y="192" width="56" height="56" fill="#fff" />
  <rect x="264" y="264" width="56" height="56" fill="#fff" />
  <rect x="192" y="336" width="56" height="56" fill="#fff" />
  <rect x="264" y="312" width="56" height="56" fill="#fff" />
  <rect x="336" y="264" width="56" height="56" fill="#fff" />
  <rect x="192" y="192" width="112" height="112" fill="#111827" />
  <circle cx="256" cy="256" r="32" fill="#fbbf24" />
  <rect x="120" y="192" width="32" height="32" fill="#fff" />
  <rect x="120" y="248" width="32" height="32" fill="#fff" />
  <rect x="120" y="304" width="32" height="32" fill="#fff" />
  <rect x="176" y="120" width="32" height="32" fill="#fff" />
  <rect x="240" y="120" width="32" height="32" fill="#fff" />
  <rect x="304" y="120" width="32" height="32" fill="#fff" />
  <rect x="184" y="384" width="32" height="32" fill="#fff" />
  <rect x="248" y="384" width="32" height="32" fill="#fff" />
  <rect x="312" y="384" width="32" height="32" fill="#fff" />
</svg>
