<svg xmlns="http://www.w3.org/2000/svg" viewBox="0 0 100 100">
  <defs>
    <radialGradient id="bG" cx="50%" cy="38%" r="70%">
      <stop offset="0%" stop-color="#0C3D9E"/>
      <stop offset="100%" stop-color="#001562"/>
    </radialGradient>
  </defs>
  <circle cx="50" cy="50" r="50" fill="url(#bG)"/>
  <circle cx="50" cy="50" r="47.5" fill="none" stroke="#C5991A" stroke-width="2.2"/>
  <circle cx="50" cy="50" r="41.5" fill="none" stroke="#C5991A" stroke-width="0.8"/>
  <g stroke="#C5991A" stroke-width="0.9" opacity="0.65">
    <line x1="50" y1="8.5" x2="50" y2="2.5"/>
    <line x1="50" y1="8.5" x2="50" y2="2.5" transform="rotate(22.5 50 50)"/>
    <line x1="50" y1="8.5" x2="50" y2="2.5" transform="rotate(45 50 50)"/>
    <line x1="50" y1="8.5" x2="50" y2="2.5" transform="rotate(67.5 50 50)"/>
    <line x1="50" y1="8.5" x2="50" y2="2.5" transform="rotate(90 50 50)"/>
    <line x1="50" y1="8.5" x2="50" y2="2.5" transform="rotate(112.5 50 50)"/>
    <line x1="50" y1="8.5" x2="50" y2="2.5" transform="rotate(135 50 50)"/>
    <line x1="50" y1="8.5" x2="50" y2="2.5" transform="rotate(157.5 50 50)"/>
    <line x1="50" y1="8.5" x2="50" y2="2.5" transform="rotate(180 50 50)"/>
    <line x1="50" y1="8.5" x2="50" y2="2.5" transform="rotate(202.5 50 50)"/>
    <line x1="50" y1="8.5" x2="50" y2="2.5" transform="rotate(225 50 50)"/>
    <line x1="50" y1="8.5" x2="50" y2="2.5" transform="rotate(247.5 50 50)"/>
    <line x1="50" y1="8.5" x2="50" y2="2.5" transform="rotate(270 50 50)"/>
    <line x1="50" y1="8.5" x2="50" y2="2.5" transform="rotate(292.5 50 50)"/>
    <line x1="50" y1="8.5" x2="50" y2="2.5" transform="rotate(315 50 50)"/>
    <line x1="50" y1="8.5" x2="50" y2="2.5" transform="rotate(337.5 50 50)"/>
  </g>
  <g stroke="#C5991A" stroke-width="1.7" stroke-linecap="round">
    <line x1="50" y1="35" x2="50" y2="24" transform="rotate(0 50 35)"/>
    <line x1="50" y1="35" x2="50" y2="24" transform="rotate(45 50 35)"/>
    <line x1="50" y1="35" x2="50" y2="24" transform="rotate(90 50 35)"/>
    <line x1="50" y1="35" x2="50" y2="24" transform="rotate(135 50 35)"/>
    <line x1="50" y1="35" x2="50" y2="24" transform="rotate(180 50 35)"/>
    <line x1="50" y1="35" x2="50" y2="24" transform="rotate(225 50 35)"/>
    <line x1="50" y1="35" x2="50" y2="24" transform="rotate(270 50 35)"/>
    <line x1="50" y1="35" x2="50" y2="24" transform="rotate(315 50 35)"/>
  </g>
  <circle cx="50" cy="35" r="5" fill="none" stroke="#C5991A" stroke-width="1.7"/>
  <circle cx="50" cy="35" r="2" fill="#C5991A"/>
  <text x="50" y="60" text-anchor="middle" dominant-baseline="middle"
        font-family="Georgia,serif" font-weight="bold" font-size="18" fill="#C5991A">BSP</text>
  <text x="50" y="73" text-anchor="middle"
        font-family="Arial,Helvetica,sans-serif" font-size="6.2" font-weight="600"
        fill="rgba(255,255,255,0.84)" letter-spacing="0.2">BANGKO SENTRAL</text>
  <text x="50" y="82" text-anchor="middle"
        font-family="Arial,Helvetica,sans-serif" font-size="6.2" font-weight="600"
        fill="rgba(255,255,255,0.84)" letter-spacing="0.2">NG PILIPINAS</text>
</svg>
