<?xml version="1.0" encoding="UTF-8"?>
<svg id="Layer_2" data-name="Layer 2" xmlns="http://www.w3.org/2000/svg" viewBox="0 0 2410.67 1919.8">
  <defs>
    <style>
      .cls-1 {
        fill: #211f1f;
      }

      .cls-2 {
        fill: #02549c;
      }
    </style>
  </defs>
  <g id="Layer_1-2" data-name="Layer 1">
    <g>
      <path class="cls-1" d="m1222.93,1235.58c3.72-.3,7.11-.81,10.49-.81,98.26.01,196.53-.55,294.78.38,56.02.53,103.41,22.56,140.66,64.53,17.49,19.71,27.91,43.42,31.51,69.48,4.26,30.8,3.03,61.48-7,91.27-9.31,27.64-24.9,50.73-50.5,65.91-7.5,4.45-15.65,7.81-24.44,12.13,2.15,1.37,3.75,2.57,5.5,3.48,33.38,17.37,62.55,39.82,85.41,69.98,42.24,55.72,46.92,127.54,8.77,187.01-30.92,48.2-74.79,79.93-129.27,97.13-5.89,1.86-12.37,2.57-18.58,2.58-104.87.13-209.75.06-314.62.04-10.99,0-21.98,0-32.81,0-2.01-9.15-1.95-649.46.12-663.1Zm81.8,357.84v236.82c6.65.22,12.56.57,18.47.58,33.07.02,66.14.14,99.21-.13,26.75-.22,53.51-.58,80.24-1.57,26.15-.97,51.05-7.76,74.3-19.63,22.77-11.63,40.28-28.51,50.66-52.52,7.07-16.35,8.8-33.19,8.54-50.62-.75-49.97-27.46-84.8-73.99-101.76-23.36-8.52-47.66-11.19-72.4-11.15-57.64.1-115.27,0-172.91-.03-3.7,0-7.41,0-12.12,0Zm-.13-61.11c4.48,0,7.57.04,10.65,0,20.45-.3,40.9-.78,61.35-.88,27.39-.14,54.77-.03,82.16.05,31.49.09,62.22-3.53,90.5-18.73,30.27-16.26,49.33-40.54,52.16-75.52.91-11.19.47-22.56-.18-33.79-2.1-36.46-21.47-61.45-53.49-77.18-22.03-10.82-45.75-15.76-70.21-15.91-54.46-.33-108.91-.15-163.37-.12-3.05,0-6.09.5-9.56.8v221.29Z"/>
      <path class="cls-1" d="m83.3,1890.42H2.06c-.42-.46-.64-.69-.84-.93-.2-.24-.5-.47-.55-.74-.26-1.54-.65-3.08-.65-4.63C0,1669.27,0,1454.43,0,1238.6c3.9-.61,7.48-1.58,11.08-1.67,34.31-.87,68.63-1.68,102.94-2.33,48.79-.93,97.59-1.67,146.38-2.55,36.06-.65,70.89,5.56,104.14,19.48,50.86,21.3,85.92,57.79,101.72,110.73,13.2,44.21,14.15,89.13.85,133.75-13.58,45.55-43.48,77.17-85.74,97.54-31.66,15.26-65.22,22.7-100.54,21.84-14.44-.35-28.89-.06-43.57-.06-.52,5.08,2.83,6.75,5.32,8.83,12.56,10.47,25.25,20.8,37.77,31.33,66.45,55.87,132.86,111.79,199.29,167.69,23.59,19.85,47.2,39.67,70.77,59.53,2.31,1.95,4.47,4.09,7.76,7.13-2.84.6-4.22,1.14-5.6,1.14-42.2.06-84.4.02-126.59.11-5.6.01-10.26-1.42-14.64-5.2-27.64-23.81-55.43-47.46-83.24-71.09-40.27-34.22-80.61-68.35-120.89-102.57-38.83-32.99-77.61-66.04-116.46-99-1.56-1.32-3.63-2.04-7.13-3.94-.53,94.16-.11,186.92-.33,281.11Zm-3.6-343.98c5.16,0,9.2,0,13.24,0,45.32,0,90.63.04,135.95,0,11.95,0,23.95.37,35.85-.47,27.43-1.93,52.29-11.16,73.13-29.31,32.09-27.94,42.15-64.42,38.56-105.33-2.43-27.65-13.53-51.29-35.68-69.18-13.48-10.88-28.89-17.73-45.26-22.53-19.79-5.8-40.32-6.98-60.75-7.16-49.09-.43-98.18-.14-147.28-.1-2.42,0-4.84.34-7.76.56v233.51Z"/>
      <path class="cls-1" d="m1139.47,1773.74v95.28c-7.1,3.33-14.5,7.33-22.27,10.36-45.29,17.66-91.63,31.51-140.08,37.44-44.13,5.4-88.05,3.17-131.71-4.36-45.17-7.8-88.86-20.76-130.49-40.01-60.75-28.09-113.26-66.55-151.83-122.16-26.39-38.05-43.57-79.8-50.93-125.54-7.61-47.3-8.3-94.43,3.63-141.22,10.47-41.09,28.92-78.27,55.41-111.41,35.13-43.97,78.97-77.22,128.55-103.32,44.59-23.48,91.73-39.59,141.16-49.4,32.24-6.39,64.75-10.6,97.53-9.01,59.52,2.88,117.47,13.83,172.36,38.08,3.16,1.4,6.24,3,9.35,4.51,2.82,1.36,5.63,2.72,9,4.35v89.48c-3.72-1.71-6.49-2.76-9.05-4.19-33.72-18.79-69.01-33.59-107.2-40.4-21.03-3.75-42.21-6.83-63.43-9.29-9.29-1.08-18.87-.24-28.27.4-32.14,2.18-63.84,7.37-94.55,17.13-55.43,17.63-105.54,44.48-145.3,87.89-38.82,42.37-57.77,92.78-59.6,149.94-1.4,43.67,7.7,84.93,28.48,123.39,19.3,35.72,46.35,64.77,78.88,88.92,30.31,22.5,63.55,39.51,99.06,52.09,22.29,7.9,45.34,12.5,68.75,16.32,43.83,7.16,85.87-.87,127.74-11.83,36.65-9.6,71.74-23.47,105.72-40.16,2.45-1.21,5.17-1.88,9.12-3.27Z"/>
      <path class="cls-1" d="m2410.67,1773.28v95.33c-2.33,1.28-5.18,3.15-8.27,4.47-50.88,21.74-103.41,37.61-158.57,44.03-41.61,4.84-82.95,2.28-124.18-4.21-34.95-5.5-69.1-14.4-101.97-27.09-65.47-25.28-124.21-60.81-169.27-116.03-20.65-25.31-37.42-53.03-48.85-83.45-16.87-44.89-23.67-91.61-21.83-139.64,3.26-84.92,38.06-154.96,99.63-212.59,37.15-34.78,79.83-61.11,126.35-81.32,38.51-16.73,78.54-29.07,119.96-35.8,30.71-4.99,61.7-8.62,93.06-6.52,53.45,3.58,105.36,14.1,155.27,33.71,9.32,3.66,18.24,8.36,27.67,12.73v89.83c-3.05-1.27-5.31-1.93-7.27-3.08-33.92-19.92-70.05-34.14-108.74-41.45-18.82-3.55-37.8-6.41-56.79-8.99-17.93-2.43-35.78.14-53.65,1.96-63.55,6.49-122.1,26.89-174.8,62.96-34.81,23.82-63.14,53.78-82.07,91.87-14.6,29.39-22.88,60.4-23.17,93.34-.19,21.04-.48,42.04,4.04,62.84,6,27.55,15.82,53.52,30.74,77.47,25.49,40.9,60.31,72.09,101.49,96.63,35.99,21.45,74.55,36.46,115.43,45.4,37.4,8.18,74.93,8.03,112.49.54,50.3-10.04,98.26-26.77,144.14-49.56,2.39-1.19,5.04-1.87,9.16-3.38Z"/>
    </g>
    <path class="cls-2" d="m1521.59,914.22l175.97-101.59v-292.72l-175.97-101.59v495.91Zm-75.28-788.4l-175.22,101.16,210.04,121.27,40.46,23.35,175.97,101.6v-202.33l-251.25-145.05Zm-215.68,755.12l-176.56,101.93,174.31,100.65,252.74-145.93v-201.28l-210.04,121.27-40.46,23.36Zm-255.16-483.29v289.25l255.16,147.32,250.5-144.63v-294.64l-250.49-144.62-255.17,147.32Zm348.15-38.7l109.8,63.39v236.76l-76.9,44.39-17.67,10.22-110.45,63.77-76.18-43.99-17.69-10.2-111.18-64.19v-236.76l76.83-44.36,17.69-10.21,110.53-63.81,77.55,44.78,17.69,10.21Zm-92.99-155.33l175.22-101.16L1228.39,0l-252.91,146.01v204.92l214.71-123.97,40.45-23.35Zm-255.16,530l-40.46-23.36-175.81-101.5v203.87l254.41,146.89,176.56-101.94-214.7-123.96Zm-40.46-564.24l-175.81,101.5v291.17l175.81,101.51V169.37Z"/>
  </g>
</svg>