<svg xmlns="http://www.w3.org/2000/svg" viewBox="0 0 160 160" role="img" aria-label="PayBot logo">
  <defs>
    <linearGradient id="brandBg" x1="0%" y1="0%" x2="100%" y2="100%">
      <stop offset="0%" stop-color="#0F172A"/>
      <stop offset="100%" stop-color="#2563EB"/>
    </linearGradient>
    <linearGradient id="brandAccent" x1="0%" y1="0%" x2="100%" y2="100%">
      <stop offset="0%" stop-color="#60A5FA"/>
      <stop offset="100%" stop-color="#38BDF8"/>
    </linearGradient>
    <filter id="shadow" x="-20%" y="-20%" width="140%" height="140%">
      <feDropShadow dx="0" dy="10" stdDeviation="10" flood-color="#0B2340" flood-opacity="0.25"/>
    </filter>
  </defs>

  <rect x="8" y="8" width="144" height="144" rx="36" fill="url(#brandBg)"/>
  <rect x="8" y="8" width="144" height="144" rx="36" fill="url(#brandAccent)" opacity="0.12"/>

  <g filter="url(#shadow)">
    <path d="M42 42 L72 42 L118 98 L118 118 L98 118 L52 62 L42 62 Z" fill="#FFFFFF" opacity="0.98"/>
    <path d="M118 42 L90 42 L54 98 L54 118 L74 118 L110 62 L118 62 Z" fill="#FFFFFF" opacity="0.98"/>
  </g>

  <path d="M50 40 L80 40 L126 96 L126 116 L106 116 L60 60 L50 60 Z" fill="url(#brandAccent)" opacity="0.75"/>
  <path d="M126 40 L98 40 L62 96 L62 116 L82 116 L118 60 L126 60 Z" fill="url(#brandAccent)" opacity="0.75"/>

  <circle cx="80" cy="80" r="6" fill="#FFFFFF" opacity="0.9"/>
</svg>
